<svg width="120" height="120" viewBox="0 0 120 120" xmlns="http://www.w3.org/2000/svg">
  <defs>
    <linearGradient id="g" x1="0" x2="1" y1="0" y2="1">
      <stop offset="0%" stop-color="#4f46e5" />
      <stop offset="100%" stop-color="#06b6d4" />
    </linearGradient>
  </defs>
  <rect rx="20" width="120" height="120" fill="url(#g)" />
  <g fill="#fff" transform="translate(18,18)">
    <path d="M26 4c-7.7 0-14 6.3-14 14s6.3 14 14 14 14-6.3 14-14S33.7 4 26 4zm0 4c5.5 0 10 4.5 10 10s-4.5 10-10 10S16 23.5 16 18s4.5-10 10-10z"/>
    <rect x="6" y="44" width="40" height="8" rx="2" />
    <rect x="6" y="58" width="28" height="8" rx="2" />
  </g>
</svg>
